<svg xmlns="http://www.w3.org/2000/svg" viewBox="0 0 400 320" width="800" height="640"><rect width="400" height="320" fill="#fff"/><g ><g ><path class="sil" d="M89.32 150.51L90.02 148.75L92.01 147.26L136.25 125.14L139.23 124.14L142.75 123.79L146.27 124.14L149.26 125.14L279.37 190.19L281.36 191.69L282.06 193.45L282.06 201.41L281.36 203.18L279.37 204.67L235.13 226.79L232.14 227.78L228.62 228.13L225.1 227.78L222.12 226.79L92.01 161.73L90.02 160.24L89.32 158.48Z" fill="#ffffff" stroke="#a4a4ac" stroke-width=".9" stroke-linejoin="round" stroke-linecap="round"></path><path class="nf lo" d="M279.48 193.45L278.98 194.71L277.54 195.79L233.31 217.91L231.16 218.63L228.62 218.88L226.09 218.63L223.94 217.91L93.83 152.85L92.4 151.78L91.89 150.51" fill="none" stroke="#e0e0e4" stroke-width=".9" stroke-linejoin="round" stroke-linecap="round"></path></g><g ><g ><path class="sil" d="M141 125.9L141.25 125.26L141.97 124.73L143.01 124.21L144.09 123.85L145.35 123.72L146.62 123.85L147.7 124.21L148.74 124.73L149.46 125.26L149.71 125.9L149.71 131L149.46 131.63L148.74 132.17L147.7 132.69L146.62 133.05L145.35 133.17L144.09 133.05L143.01 132.69L141.97 132.17L141.25 131.63L141 131Z" fill="#ffffff" stroke="#a4a4ac" stroke-width=".9" stroke-linejoin="round" stroke-linecap="round"></path><path class="nf lo" d="M148.79 125.9L148.61 126.35L148.09 126.74L147.05 127.26L146.27 127.52L145.35 127.61L144.44 127.52L143.66 127.26L142.62 126.74L142.1 126.35L141.92 125.9" fill="none" stroke="#e0e0e4" stroke-width=".9" stroke-linejoin="round" stroke-linecap="round"></path></g><g ><path class="sil" d="M99.37 146.71L99.62 146.08L100.34 145.54L101.38 145.02L102.45 144.66L103.72 144.54L104.99 144.66L106.06 145.02L107.1 145.54L107.82 146.08L108.07 146.71L108.07 151.81L107.82 152.45L107.1 152.98L106.06 153.5L104.99 153.86L103.72 153.99L102.45 153.86L101.38 153.5L100.34 152.98L99.62 152.45L99.37 151.81Z" fill="#ffffff" stroke="#a4a4ac" stroke-width=".9" stroke-linejoin="round" stroke-linecap="round"></path><path class="nf lo" d="M107.15 146.71L106.97 147.17L106.45 147.56L105.41 148.08L104.64 148.34L103.72 148.43L102.8 148.34L102.03 148.08L100.99 147.56L100.47 147.17L100.29 146.71" fill="none" stroke="#e0e0e4" stroke-width=".9" stroke-linejoin="round" stroke-linecap="round"></path></g><g ><path class="sil" d="M109.78 154.52L110.03 153.89L110.75 153.35L111.79 152.83L112.86 152.47L114.13 152.34L115.4 152.47L116.47 152.83L117.51 153.35L118.23 153.89L118.48 154.52L118.48 159.62L118.23 160.25L117.51 160.79L116.47 161.31L115.4 161.67L114.13 161.8L112.86 161.67L111.79 161.31L110.75 160.79L110.03 160.25L109.78 159.62Z" fill="#ffffff" stroke="#a4a4ac" stroke-width=".9" stroke-linejoin="round" stroke-linecap="round"></path><path class="nf lo" d="M117.56 154.52L117.38 154.98L116.86 155.37L115.82 155.89L115.04 156.15L114.13 156.24L113.21 156.15L112.44 155.89L111.4 155.37L110.88 154.98L110.7 154.52" fill="none" stroke="#e0e0e4" stroke-width=".9" stroke-linejoin="round" stroke-linecap="round"></path></g><g ><path class="sil" d="M180.03 189.65L180.29 189.02L181 188.48L182.05 187.96L183.12 187.6L184.39 187.47L185.65 187.6L186.73 187.96L187.77 188.48L188.49 189.02L188.74 189.65L188.74 194.75L188.49 195.38L187.77 195.92L186.73 196.44L185.65 196.8L184.39 196.92L183.12 196.8L182.05 196.44L181 195.92L180.29 195.38L180.03 194.75Z" fill="#ffffff" stroke="#a4a4ac" stroke-width=".9" stroke-linejoin="round" stroke-linecap="round"></path><path class="nf lo" d="M187.82 189.65L187.64 190.11L187.12 190.5L186.08 191.02L185.3 191.27L184.39 191.37L183.47 191.27L182.7 191.02L181.65 190.5L181.14 190.11L180.95 189.65" fill="none" stroke="#e0e0e4" stroke-width=".9" stroke-linejoin="round" stroke-linecap="round"></path></g><g ><path class="sil" d="M213.86 206.56L214.11 205.93L214.83 205.39L215.87 204.87L216.95 204.51L218.22 204.39L219.48 204.51L220.56 204.87L221.6 205.39L222.32 205.93L222.57 206.56L222.57 211.66L222.32 212.3L221.6 212.83L220.56 213.35L219.48 213.71L218.22 213.84L216.95 213.71L215.87 213.35L214.83 212.83L214.11 212.3L213.86 211.66Z" fill="#ffffff" stroke="#a4a4ac" stroke-width=".9" stroke-linejoin="round" stroke-linecap="round"></path><path class="nf lo" d="M221.65 206.56L221.47 207.02L220.95 207.41L219.91 207.93L219.13 208.19L218.22 208.28L217.3 208.19L216.52 207.93L215.48 207.41L214.96 207.02L214.78 206.56" fill="none" stroke="#e0e0e4" stroke-width=".9" stroke-linejoin="round" stroke-linecap="round"></path></g><g ><path class="sil" d="M176.9 184.98L177.05 184.59L177.49 184.26L177.75 184.13L178.41 183.91L179.18 183.83L179.96 183.91L180.61 184.13L180.87 184.26L181.31 184.59L181.47 184.98L181.47 192.15L181.31 192.53L180.87 192.86L180.61 192.99L179.96 193.21L179.18 193.29L178.41 193.21L177.75 192.99L177.49 192.86L177.05 192.53L176.9 192.15Z" fill="#ffffff" stroke="#a4a4ac" stroke-width=".9" stroke-linejoin="round" stroke-linecap="round"></path><path class="nf lo" d="M180.91 184.98L180.8 185.26L180.48 185.5L180.22 185.63L179.75 185.79L179.18 185.84L178.62 185.79L178.14 185.63L177.88 185.5L177.56 185.26L177.45 184.98" fill="none" stroke="#e0e0e4" stroke-width=".9" stroke-linejoin="round" stroke-linecap="round"></path></g></g><g ><g ><path class="sil" d="M100.95 82.28L101.4 81.16L102.68 80.2L135.99 63.55L137.9 62.91L140.15 62.69L142.4 62.91L144.31 63.55L167.21 75L168.49 75.95L168.94 77.08L168.94 144.01L168.49 145.13L167.21 146.09L133.91 162.74L132 163.38L129.74 163.6L127.49 163.38L125.58 162.74L102.68 151.29L101.4 150.34L100.95 149.21Z" fill="#ffffff" stroke="#a4a4ac" stroke-width=".9" stroke-linejoin="round" stroke-linecap="round"></path><path class="nf lo" d="M166.73 77.08L166.45 77.78L165.65 78.38L132.34 95.03L131.15 95.43L129.74 95.57L128.33 95.43L127.14 95.03L104.24 83.59L103.44 82.99L103.16 82.28" fill="none" stroke="#e0e0e4" stroke-width=".9" stroke-linejoin="round" stroke-linecap="round"></path></g><g ><path class="sil" d="M102.95 74.61L103.28 73.76L104.24 73.05L134.43 57.96L135.86 57.48L137.55 57.31L139.24 57.48L140.67 57.96L160.45 67.84L161.4 68.56L161.74 69.41L161.74 75.78L161.4 76.62L160.45 77.34L130.26 92.43L128.83 92.91L127.14 93.08L125.45 92.91L124.02 92.43L104.24 82.54L103.28 81.83L102.95 80.98Z" fill="#ffffff" stroke="#a4a4ac" stroke-width=".9" stroke-linejoin="round" stroke-linecap="round"></path><path class="nf lo" d="M160.08 69.41L159.87 69.93L159.28 70.38L129.09 85.47L128.2 85.77L127.14 85.88L126.08 85.77L125.19 85.47L105.41 75.59L104.81 75.14L104.6 74.61" fill="none" stroke="#e0e0e4" stroke-width=".9" stroke-linejoin="round" stroke-linecap="round"></path></g><path d="M137.55 56.39L163.57 69.41L168.77 78.38L137.55 62.77Z" class="lo" fill="#ffffff" stroke="#e0e0e4" stroke-width=".9" stroke-linejoin="round" stroke-linecap="round"></path><path d="M116.73 158.32L121.94 160.92L124.54 118.19L119.33 115.59Z" class="lo" fill="#ffffff" stroke="#e0e0e4" stroke-width=".9" stroke-linejoin="round" stroke-linecap="round"></path><path d="M168.77 110.25L132.34 128.47L132.34 91.82L168.77 73.6Z" class="sil" fill="#ffffff" stroke="#a4a4ac" stroke-width=".9" stroke-linejoin="round" stroke-linecap="round"></path><path d="M166.17 108.36L160.97 80.69M160.97 110.97L166.17 78.09M160.97 110.97L155.76 83.29M155.76 113.57L160.97 80.69M155.76 113.57L150.56 85.9M150.56 116.17L155.76 83.29M150.56 116.17L145.35 88.5M145.35 118.77L150.56 85.9M145.35 118.77L140.15 91.1M140.15 121.38L145.35 88.5M140.15 121.38L134.95 93.7M134.95 123.98L140.15 91.1M134.95 123.98L129.74 96.3M129.74 126.58L134.95 93.7" class="lo dash" fill="#ffffff" stroke="#e0e0e4" stroke-width=".9" stroke-linejoin="round" stroke-linecap="round" stroke-dasharray="1 3"></path><g ><path class="sil" d="M157.55 103.66L157.6 103.56L157.72 103.47L160.58 102.04L160.76 101.98L160.97 101.96L161.18 101.98L161.36 102.04L161.48 102.13L161.52 102.23L161.52 106.69L161.48 106.8L161.36 106.89L158.5 108.32L158.32 108.38L158.11 108.4L157.89 108.38L157.72 108.32L157.6 108.23L157.55 108.13Z" fill="#ffffff" stroke="#a4a4ac" stroke-width=".9" stroke-linejoin="round" stroke-linecap="round"></path><path class="nf lo" d="M160.71 102.23L160.71 102.23L160.71 102.23L158.11 103.53L158.11 103.53L158.11 103.53L158.11 103.53L158.11 103.53L158.37 103.66L158.37 103.66L158.37 103.66" fill="none" stroke="#e0e0e4" stroke-width=".9" stroke-linejoin="round" stroke-linecap="round"></path></g><g ><path class="sil" d="M139.34 112.77L139.38 112.67L139.5 112.58L142.36 111.14L142.54 111.08L142.75 111.06L142.96 111.08L143.14 111.14L143.26 111.23L143.3 111.34L143.3 115.8L143.26 115.91L143.14 116L140.28 117.43L140.1 117.49L139.89 117.51L139.68 117.49L139.5 117.43L139.38 117.34L139.34 117.23Z" fill="#ffffff" stroke="#a4a4ac" stroke-width=".9" stroke-linejoin="round" stroke-linecap="round"></path><path class="nf lo" d="M142.49 111.34L142.49 111.34L142.49 111.34L139.89 112.64L139.89 112.64L139.89 112.64L139.89 112.64L139.89 112.64L140.15 112.77L140.15 112.77L140.15 112.77" fill="none" stroke="#e0e0e4" stroke-width=".9" stroke-linejoin="round" stroke-linecap="round"></path></g><g ><path class="sil" d="M157.55 86.14L157.6 86.03L157.72 85.94L160.58 84.51L160.76 84.45L160.97 84.43L161.18 84.45L161.36 84.51L161.48 84.6L161.52 84.7L161.52 89.17L161.48 89.27L161.36 89.36L158.5 90.79L158.32 90.85L158.11 90.87L157.89 90.85L157.72 90.79L157.6 90.7L157.55 90.6Z" fill="#ffffff" stroke="#a4a4ac" stroke-width=".9" stroke-linejoin="round" stroke-linecap="round"></path><path class="nf lo" d="M160.71 84.7L160.71 84.7L160.71 84.7L158.11 86L158.11 86L158.11 86L158.11 86L158.11 86L158.37 86.14L158.37 86.14L158.37 86.14" fill="none" stroke="#e0e0e4" stroke-width=".9" stroke-linejoin="round" stroke-linecap="round"></path></g><g ><path class="sil" d="M139.34 95.24L139.38 95.14L139.5 95.05L142.36 93.62L142.54 93.56L142.75 93.54L142.96 93.56L143.14 93.62L143.26 93.71L143.3 93.81L143.3 98.27L143.26 98.38L143.14 98.47L140.28 99.9L140.1 99.96L139.89 99.98L139.68 99.96L139.5 99.9L139.38 99.81L139.34 99.7Z" fill="#ffffff" stroke="#a4a4ac" stroke-width=".9" stroke-linejoin="round" stroke-linecap="round"></path><path class="nf lo" d="M142.49 93.81L142.49 93.81L142.49 93.81L139.89 95.11L139.89 95.11L139.89 95.11L139.89 95.11L139.89 95.11L140.15 95.24L140.15 95.24L140.15 95.24" fill="none" stroke="#e0e0e4" stroke-width=".9" stroke-linejoin="round" stroke-linecap="round"></path></g></g><g ><g ><path class="sil" d="M220.5 168.21L220.92 167.16L222.12 166.26L250.74 151.95L252.53 151.35L254.65 151.14L256.76 151.35L258.55 151.95L263.75 154.55L264.95 155.45L265.37 156.5L265.37 194.75L264.95 195.8L263.75 196.7L235.13 211.01L233.34 211.61L231.23 211.82L229.11 211.61L227.32 211.01L222.12 208.41L220.92 207.51L220.5 206.46Z" fill="#ffffff" stroke="#a4a4ac" stroke-width=".9" stroke-linejoin="round" stroke-linecap="round"></path><path class="nf lo" d="M263.35 156.5L263.08 157.17L262.32 157.74L233.7 172.05L232.56 172.43L231.23 172.56L229.89 172.43L228.75 172.05L223.55 169.45L222.79 168.88L222.53 168.21" fill="none" stroke="#e0e0e4" stroke-width=".9" stroke-linejoin="round" stroke-linecap="round"></path></g><g ><path class="sil" d="M228.15 157.58L228.78 155.99L230.58 154.65L237.08 151.4L239.77 150.5L242.94 150.19L246.1 150.5L248.79 151.4L255.3 154.65L257.09 155.99L257.72 157.58L257.72 176.7L257.09 178.29L255.3 179.63L248.79 182.88L246.1 183.78L242.94 184.09L239.77 183.78L237.08 182.88L230.58 179.63L228.78 178.29L228.15 176.7Z" fill="#ffffff" stroke="#a4a4ac" stroke-width=".9" stroke-linejoin="round" stroke-linecap="round"></path><path class="nf lo" d="M256.06 157.58L255.56 158.85L254.12 159.92L247.62 163.17L245.47 163.89L242.94 164.14L240.4 163.89L238.25 163.17L231.75 159.92L230.31 158.85L229.81 157.58" fill="none" stroke="#e0e0e4" stroke-width=".9" stroke-linejoin="round" stroke-linecap="round"></path></g><g ><path class="sil" d="M231.97 196.51L232.02 196.4L232.14 196.31L235 194.88L235.18 194.82L235.39 194.8L235.6 194.82L235.78 194.88L235.9 194.97L235.94 195.08L235.94 199.86L235.9 199.96L235.78 200.05L232.92 201.48L232.74 201.54L232.53 201.56L232.32 201.54L232.14 201.48L232.02 201.39L231.97 201.29Z" fill="#ffffff" stroke="#a4a4ac" stroke-width=".9" stroke-linejoin="round" stroke-linecap="round"></path><path class="nf lo" d="M235.39 195.08L235.39 195.08L235.39 195.08L232.53 196.51L232.53 196.51L232.53 196.51L232.53 196.51L232.53 196.51L232.53 196.51L232.53 196.51L232.53 196.51" fill="none" stroke="#e0e0e4" stroke-width=".9" stroke-linejoin="round" stroke-linecap="round"></path></g></g><g ><path class="lo" d="M193.49 126.51L250.74 155.14M164.87 140.83L222.12 169.45" fill="#ffffff" stroke="#e0e0e4" stroke-width=".9" stroke-linejoin="round" stroke-linecap="round"></path><path class="sil" d="M150.56 116.97L153.16 118.27M150.56 124.94L153.16 126.24M179.18 131.28L236.43 159.9M179.18 139.25L236.43 167.87M249.44 167.21L257.25 171.11M249.44 173.58L257.25 177.48" fill="#ffffff" stroke="#a4a4ac" stroke-width=".9" stroke-linejoin="round" stroke-linecap="round"></path><path class="lo" d="M183.87 130.72L178.66 141.89M186.99 132.28L181.78 143.45M190.11 133.84L184.91 145.01M193.23 135.4L188.03 146.58M196.36 136.96L191.15 148.14M199.48 138.52L194.28 149.7M202.6 140.08L197.4 151.26M205.72 141.65L200.52 152.82M208.85 143.21L203.64 154.38M211.97 144.77L206.77 155.94M215.09 146.33L209.89 157.5M218.22 147.89L213.01 159.07M221.34 149.45L216.13 160.63M224.46 151.01L219.26 162.19M227.58 152.58L222.38 163.75M230.71 154.14L225.5 165.31M233.83 155.7L228.62 166.87M236.95 157.26L231.75 168.43" fill="#ffffff" stroke="#e0e0e4" stroke-width=".9" stroke-linejoin="round" stroke-linecap="round"></path></g><g ><g ><path class="sil hi" d="M134.63 99.2L135.05 98.14L136.25 97.25L170.08 80.33L171.87 79.73L173.98 79.52L176.09 79.73L177.88 80.33L183.09 82.93L184.28 83.83L184.7 84.89L184.7 139.07L184.28 140.12L183.09 141.02L149.26 157.93L147.47 158.53L145.35 158.74L143.24 158.53L141.45 157.93L136.25 155.33L135.05 154.43L134.63 153.38Z" fill="#ffffff" stroke="#232327" stroke-width=".9" stroke-linejoin="round" stroke-linecap="round"></path><path class="nf lo" d="M182.68 84.89L182.41 85.56L181.65 86.12L147.83 103.04L146.69 103.42L145.35 103.55L144.02 103.42L142.88 103.04L137.68 100.43L136.92 99.87L136.65 99.2" fill="none" stroke="#e0e0e4" stroke-width=".9" stroke-linejoin="round" stroke-linecap="round"></path></g><g ><path class="sil" d="M148.79 127.36L149.18 126.38L150.3 125.54L182.05 109.67L183.72 109.11L185.69 108.91L187.66 109.11L189.33 109.67L195.06 112.53L196.17 113.37L196.56 114.35L196.56 146.22L196.17 147.21L195.06 148.04L163.31 163.92L161.64 164.47L159.67 164.67L157.7 164.47L156.02 163.92L150.3 161.05L149.18 160.22L148.79 159.23Z" fill="#ffffff" stroke="#a4a4ac" stroke-width=".9" stroke-linejoin="round" stroke-linecap="round"></path><path class="nf lo" d="M194.91 114.35L194.64 115.02L193.88 115.59L162.14 131.46L161 131.84L159.67 131.97L158.33 131.84L157.19 131.46L151.47 128.6L150.71 128.03L150.45 127.36" fill="none" stroke="#e0e0e4" stroke-width=".9" stroke-linejoin="round" stroke-linecap="round"></path></g><g ><path class="sil" d="M139.23 91.52L139.53 90.75L140.41 90.09L168.51 76.04L169.83 75.6L171.38 75.45L172.93 75.6L174.24 76.04L178.92 78.38L179.8 79.04L180.11 79.81L180.11 86.19L179.8 86.96L178.92 87.62L150.82 101.67L149.51 102.11L147.96 102.26L146.41 102.11L145.09 101.67L140.41 99.33L139.53 98.67L139.23 97.9Z" fill="#ffffff" stroke="#a4a4ac" stroke-width=".9" stroke-linejoin="round" stroke-linecap="round"></path><path class="nf lo" d="M178.64 79.81L178.44 80.31L177.88 80.72L149.78 94.78L148.94 95.06L147.96 95.15L146.97 95.06L146.14 94.78L141.45 92.43L140.89 92.02L140.7 91.52" fill="none" stroke="#e0e0e4" stroke-width=".9" stroke-linejoin="round" stroke-linecap="round"></path></g><path class="sil" d="M171.38 111.55L134.95 129.77L134.95 93.12L171.38 74.9Z" fill="#ffffff" stroke="#a4a4ac" stroke-width=".9" stroke-linejoin="round" stroke-linecap="round"></path><path class="lo dash" d="M168.77 109.67L163.57 81.99M163.57 112.27L168.77 79.39M163.57 112.27L158.37 84.59M158.37 114.87L163.57 81.99M158.37 114.87L153.16 87.2M153.16 117.47L158.37 84.59M153.16 117.47L147.96 89.8M147.96 120.07L153.16 87.2M147.96 120.07L142.75 92.4M142.75 122.68L147.96 89.8M142.75 122.68L137.55 95M137.55 125.28L142.75 92.4M137.55 125.28L132.34 97.6M132.34 127.88L137.55 95" fill="#ffffff" stroke="#e0e0e4" stroke-width=".9" stroke-linejoin="round" stroke-linecap="round" stroke-dasharray="1 3"></path><path class="lo" d="M137.55 165.54L147.96 170.74L145.35 131.78L140.15 129.18Z" fill="#ffffff" stroke="#e0e0e4" stroke-width=".9" stroke-linejoin="round" stroke-linecap="round"></path><path class="lo" d="M170.08 80.33L177.88 80.33M136.25 97.25L136.25 101.15M185.69 107.85L146.66 127.36M146.66 159.23L146.66 127.36" fill="#ffffff" stroke="#e0e0e4" stroke-width=".9" stroke-linejoin="round" stroke-linecap="round"></path></g><g ><path class="sil" d="M252.3 176.77L252.97 173.41L254.78 170.29L257.25 168.24L259.72 167.82L267.53 171.72L269.34 173.03L270 175.73L269.34 179.09L267.53 182.21L265.05 184.25L262.58 184.68L254.78 180.78L252.97 179.46Z" fill="#ffffff" stroke="#a4a4ac" stroke-width=".9" stroke-linejoin="round" stroke-linecap="round"></path><path class="nf lo" d="M260.11 180.67L260.77 177.31L262.58 174.19L265.05 172.14L267.53 171.72L269.34 173.03L270 175.73L269.34 179.09L267.53 182.21L265.05 184.25L262.58 184.68L260.77 183.37Z" fill="none" stroke="#e0e0e4" stroke-width=".9" stroke-linejoin="round" stroke-linecap="round"></path><path class="sil" d="M263.36 179.31L264.34 176.75L266.29 175.77L267.27 177.35L266.29 179.91L264.34 180.89Z" fill="#ffffff" stroke="#a4a4ac" stroke-width=".9" stroke-linejoin="round" stroke-linecap="round"></path><path class="sil" d="M265.7 174.32L259.2 179.48L285.62 198.76L290.82 192.34Z" fill="#ffffff" stroke="#a4a4ac" stroke-width=".9" stroke-linejoin="round" stroke-linecap="round"></path><path class="sil" d="M285.36 196.98L285.74 195.04L286.79 193.23L288.22 192.04L289.65 191.8L308 200.56L309.14 201.39L309.56 203.1L309.14 205.22L308 207.19L306.44 208.48L304.88 208.75L286.79 199.3L285.74 198.54Z" fill="#ffffff" stroke="#a4a4ac" stroke-width=".9" stroke-linejoin="round" stroke-linecap="round"></path><path class="nf lo" d="M306.7 207.13L307.01 205.54L307.87 204.06L309.04 203.09L310.21 202.89L311.07 203.51L311.38 204.79L311.07 206.38L310.21 207.86L309.04 208.83L307.87 209.03L307.01 208.41Z" fill="none" stroke="#e0e0e4" stroke-width=".9" stroke-linejoin="round" stroke-linecap="round"></path></g></g></svg>